<?xml version="1.0" encoding="UTF-8"?>
<svg xmlns="http://www.w3.org/2000/svg" viewBox="0 0 32 32" width="32" height="32">
  <path fill="#6366f1" transform="translate(-7, 5) scale(0.048)" d="M719.1,75.1c-14.3-6-28.4-7.9-43-17.4-12-7.9-20.7-28.3-52.3-29.6-31.6-1.3-45.4,13.1-52.1,24.5-9.4,15.7-58.9,38.9-75.4,46.3C175.3,243.5,202.5,350.7,222.1,396.4c15.5,36.1,49.8,60.4,121.1,66.5,59.5,5.1,100.6,3.2,118.6-11.7,11.5-9.5,13.5-28.7,13.7-38.5-.8-6.3-2-12.5-3.8-18.5-20.2-64.1-97.7-79.5-157-76.8,63.1-6.8,146.2,8.1,168.2,76.8.7,2,1.3,4,1.8,6h0s0,0,0,0c34.8,48.9,67.6,80.7,87.7,80.7h96.2c4.3,0,12.5-8.2,12.5-15.3,0-23.2-13.1-41.6-27.6-48.3-5.2-2.4-12.8-5.8-24.6-10.6-13.7-5.6-58.2-30.2-56.1-93.1,3.7,54.9,45.9,78.5,57.9,83.9,6.2,2.8,33.9,13.1,40.1,19.7h39.5c3.4,0,9.9-6.5,9.9-12.1,0-18.4-10.5-33.6-21.9-38.3-4.2-1.7-15.6-5.9-18.6-7.4-3-1.5-25.5-9-28.5-70.8-2.9-60.2,22.4-79.7,25.3-82.8.3-.3.6-.5.8-.7,27.3-27.9,68.3-55.5,70-82.7,1.1-17.2-11-40.1-28.4-47.4ZM621.9,77.1c13.3,0,24.2,12.5,24.2,28s-10.8,28-24.2,28-24.2-12.5-24.2-28,10.8-28,24.2-28Z"/>
</svg>
